<mxfile host="app.diagrams.net" modified="2021-12-31T03:25:31.471Z" agent="5.0 (Windows NT 10.0; Win64; x64) AppleWebKit/537.36 (KHTML, like Gecko) Chrome/96.0.4664.110 Safari/537.36" etag="Vf0xGCqFlCKDdi0ONuvD" version="16.1.0" type="github">
  <diagram id="wwaDKiDkGqbvfkYjj2Pp" name="Page-1">
    <mxGraphModel dx="1609" dy="436" grid="1" gridSize="10" guides="1" tooltips="1" connect="1" arrows="1" fold="1" page="1" pageScale="1" pageWidth="827" pageHeight="1169" math="0" shadow="0">
      <root>
        <mxCell id="0" />
        <mxCell id="1" parent="0" />
        <mxCell id="VVRdmRR-YWMeSzuprIb1-1" value="根目录 /&lt;br&gt;&lt;span style=&quot;color: rgb(68 , 68 , 68) ; font-family: &amp;#34;helvetica neue&amp;#34; , , &amp;#34;microsoft yahei&amp;#34; , &amp;#34;helvetica&amp;#34; , &amp;#34;arial&amp;#34; , sans-serif ; font-size: 14px ; text-align: left ; background-color: rgb(255 , 255 , 255)&quot;&gt;(所有目录都是由根目录衍生出来的)&lt;/span&gt;" style="rounded=0;whiteSpace=wrap;html=1;" vertex="1" parent="1">
          <mxGeometry x="-60" y="110" width="270" height="50" as="geometry" />
        </mxCell>
        <mxCell id="VVRdmRR-YWMeSzuprIb1-16" value="" style="edgeStyle=orthogonalEdgeStyle;rounded=0;orthogonalLoop=1;jettySize=auto;html=1;fontColor=#FF3333;" edge="1" parent="1" source="VVRdmRR-YWMeSzuprIb1-2" target="VVRdmRR-YWMeSzuprIb1-15">
          <mxGeometry relative="1" as="geometry" />
        </mxCell>
        <mxCell id="VVRdmRR-YWMeSzuprIb1-2" value="&lt;font color=&quot;#ff3333&quot;&gt;/root&lt;/font&gt;&lt;br&gt;(&lt;font color=&quot;#444444&quot;&gt;&lt;span style=&quot;font-size: 14px ; background-color: rgb(255 , 255 , 255)&quot;&gt;系统管理员，超级权限者的用户主目录&lt;/span&gt;&lt;/font&gt;)" style="rounded=0;whiteSpace=wrap;html=1;" vertex="1" parent="1">
          <mxGeometry x="-290" y="230" width="150" height="50" as="geometry" />
        </mxCell>
        <mxCell id="VVRdmRR-YWMeSzuprIb1-3" value="&lt;span style=&quot;color: rgb(68 , 68 , 68) ; font-family: &amp;#34;helvetica neue&amp;#34; , , &amp;#34;microsoft yahei&amp;#34; , &amp;#34;helvetica&amp;#34; , &amp;#34;arial&amp;#34; , sans-serif ; font-size: 14px ; background-color: rgb(255 , 255 , 255)&quot;&gt;/sbin&lt;br&gt;(存放系统管理员使用的系统管理程序)&lt;br&gt;&lt;/span&gt;" style="rounded=0;whiteSpace=wrap;html=1;" vertex="1" parent="1">
          <mxGeometry x="-640" y="230" width="170" height="50" as="geometry" />
        </mxCell>
        <mxCell id="VVRdmRR-YWMeSzuprIb1-32" value="" style="edgeStyle=orthogonalEdgeStyle;rounded=0;orthogonalLoop=1;jettySize=auto;html=1;fontColor=#FF3333;" edge="1" parent="1" source="VVRdmRR-YWMeSzuprIb1-4" target="VVRdmRR-YWMeSzuprIb1-31">
          <mxGeometry relative="1" as="geometry" />
        </mxCell>
        <mxCell id="VVRdmRR-YWMeSzuprIb1-4" value="&lt;font color=&quot;#ff3333&quot;&gt;/boot&lt;br&gt;&lt;/font&gt;(存放启动linux时使用的一些核心文件，包括一些连接文件和镜像文件)" style="rounded=0;whiteSpace=wrap;html=1;" vertex="1" parent="1">
          <mxGeometry x="600" y="225" width="170" height="60" as="geometry" />
        </mxCell>
        <mxCell id="VVRdmRR-YWMeSzuprIb1-5" value="&lt;span style=&quot;font-size: 14px ; background-color: rgb(255 , 255 , 255)&quot;&gt;&lt;font color=&quot;#ff3333&quot;&gt;/bin&lt;/font&gt;&lt;br&gt;&lt;font color=&quot;#444444&quot;&gt;(存放最经常使用的命令)&lt;/font&gt;&lt;br&gt;&lt;/span&gt;" style="rounded=0;whiteSpace=wrap;html=1;" vertex="1" parent="1">
          <mxGeometry x="-810" y="230" width="160" height="50" as="geometry" />
        </mxCell>
        <mxCell id="VVRdmRR-YWMeSzuprIb1-13" value="" style="edgeStyle=orthogonalEdgeStyle;rounded=0;orthogonalLoop=1;jettySize=auto;html=1;fontColor=#FF3333;" edge="1" parent="1" source="VVRdmRR-YWMeSzuprIb1-6" target="VVRdmRR-YWMeSzuprIb1-11">
          <mxGeometry relative="1" as="geometry" />
        </mxCell>
        <mxCell id="VVRdmRR-YWMeSzuprIb1-6" value="&lt;font color=&quot;#ff3333&quot;&gt;/home&lt;/font&gt;&lt;br&gt;(&lt;span style=&quot;color: rgb(68 , 68 , 68) ; font-family: &amp;#34;helvetica neue&amp;#34; , , &amp;#34;microsoft yahei&amp;#34; , &amp;#34;helvetica&amp;#34; , &amp;#34;arial&amp;#34; , sans-serif ; font-size: 14px ; background-color: rgb(255 , 255 , 255)&quot;&gt;普通用户的主目录，也称为家目录）&lt;/span&gt;" style="rounded=0;whiteSpace=wrap;html=1;" vertex="1" parent="1">
          <mxGeometry x="-460" y="230" width="160" height="50" as="geometry" />
        </mxCell>
        <mxCell id="VVRdmRR-YWMeSzuprIb1-30" value="" style="edgeStyle=orthogonalEdgeStyle;rounded=0;orthogonalLoop=1;jettySize=auto;html=1;fontColor=#FF3333;" edge="1" parent="1" source="VVRdmRR-YWMeSzuprIb1-7" target="VVRdmRR-YWMeSzuprIb1-29">
          <mxGeometry relative="1" as="geometry" />
        </mxCell>
        <mxCell id="VVRdmRR-YWMeSzuprIb1-7" value="&lt;font color=&quot;#ff3333&quot;&gt;/usr&lt;/font&gt;&lt;br&gt;（用户的很多应用程序和文件都放在这个目录下，类似于windows下的program files文件）" style="rounded=0;whiteSpace=wrap;html=1;" vertex="1" parent="1">
          <mxGeometry x="390" y="225" width="190" height="60" as="geometry" />
        </mxCell>
        <mxCell id="VVRdmRR-YWMeSzuprIb1-19" value="" style="edgeStyle=orthogonalEdgeStyle;rounded=0;orthogonalLoop=1;jettySize=auto;html=1;fontColor=#FF3333;" edge="1" parent="1" source="VVRdmRR-YWMeSzuprIb1-8" target="VVRdmRR-YWMeSzuprIb1-18">
          <mxGeometry relative="1" as="geometry" />
        </mxCell>
        <mxCell id="VVRdmRR-YWMeSzuprIb1-8" value="/lib&lt;br&gt;(&lt;span style=&quot;color: rgb(68 , 68 , 68) ; font-family: &amp;#34;helvetica neue&amp;#34; , , &amp;#34;microsoft yahei&amp;#34; , &amp;#34;helvetica&amp;#34; , &amp;#34;arial&amp;#34; , sans-serif ; font-size: 14px ; background-color: rgb(255 , 255 , 255)&quot;&gt;系统调用的函数库保存位置&lt;/span&gt;)" style="rounded=0;whiteSpace=wrap;html=1;" vertex="1" parent="1">
          <mxGeometry x="-120" y="230" width="140" height="50" as="geometry" />
        </mxCell>
        <mxCell id="VVRdmRR-YWMeSzuprIb1-24" value="" style="edgeStyle=orthogonalEdgeStyle;rounded=0;orthogonalLoop=1;jettySize=auto;html=1;fontColor=#FF3333;" edge="1" parent="1" source="VVRdmRR-YWMeSzuprIb1-9" target="VVRdmRR-YWMeSzuprIb1-23">
          <mxGeometry relative="1" as="geometry" />
        </mxCell>
        <mxCell id="VVRdmRR-YWMeSzuprIb1-9" value="/lost+found&lt;br&gt;(一般为空，系统非法关机后，就会存放文件)" style="rounded=0;whiteSpace=wrap;html=1;" vertex="1" parent="1">
          <mxGeometry x="50" y="230" width="140" height="50" as="geometry" />
        </mxCell>
        <mxCell id="VVRdmRR-YWMeSzuprIb1-28" value="" style="edgeStyle=orthogonalEdgeStyle;rounded=0;orthogonalLoop=1;jettySize=auto;html=1;fontColor=#FF3333;" edge="1" parent="1" source="VVRdmRR-YWMeSzuprIb1-10" target="VVRdmRR-YWMeSzuprIb1-25">
          <mxGeometry relative="1" as="geometry" />
        </mxCell>
        <mxCell id="VVRdmRR-YWMeSzuprIb1-10" value="&lt;font color=&quot;#ff3333&quot;&gt;/etc&lt;/font&gt;&lt;br&gt;(所有系统管理所需要的配置文件和子目录)" style="rounded=0;whiteSpace=wrap;html=1;" vertex="1" parent="1">
          <mxGeometry x="220" y="230" width="140" height="50" as="geometry" />
        </mxCell>
        <mxCell id="VVRdmRR-YWMeSzuprIb1-11" value="&lt;span style=&quot;color: rgb(68 , 68 , 68) ; font-family: &amp;#34;helvetica neue&amp;#34; , , &amp;#34;microsoft yahei&amp;#34; , &amp;#34;helvetica&amp;#34; , &amp;#34;arial&amp;#34; , sans-serif ; font-size: 14px ; background-color: rgb(255 , 255 , 255)&quot;&gt;所有普通用户的主目录是在 /home/ 下建立一个和用户名相同的目录&lt;/span&gt;" style="rounded=0;whiteSpace=wrap;html=1;fontColor=#FF3333;" vertex="1" parent="1">
          <mxGeometry x="-460" y="310" width="160" height="90" as="geometry" />
        </mxCell>
        <mxCell id="VVRdmRR-YWMeSzuprIb1-15" value="&lt;span style=&quot;color: rgb(68 , 68 , 68) ; font-size: 14px ; background-color: rgb(255 , 255 , 255)&quot;&gt;root 主目录直接在“/”下&lt;/span&gt;" style="rounded=0;whiteSpace=wrap;html=1;fontColor=#FF3333;" vertex="1" parent="1">
          <mxGeometry x="-295" y="310" width="155" height="90" as="geometry" />
        </mxCell>
        <mxCell id="VVRdmRR-YWMeSzuprIb1-17" value="&lt;span style=&quot;color: rgb(68 , 68 , 68) ; font-family: &amp;#34;helvetica neue&amp;#34; , , &amp;#34;microsoft yahei&amp;#34; , &amp;#34;helvetica&amp;#34; , &amp;#34;arial&amp;#34; , sans-serif ; font-size: 14px ; background-color: rgb(255 , 255 , 255)&quot;&gt;保存与系统环境设置相关的命令，只有 root 可以使用这些命令进行系统环境设置，但也有些命令可以允许普通用户查看&lt;/span&gt;" style="rounded=0;whiteSpace=wrap;html=1;fontColor=#FF3333;" vertex="1" parent="1">
          <mxGeometry x="-645" y="310" width="180" height="90" as="geometry" />
        </mxCell>
        <mxCell id="VVRdmRR-YWMeSzuprIb1-18" value="&lt;span style=&quot;color: rgb(68 , 68 , 68) ; font-size: 14px ; background-color: rgb(255 , 255 , 255)&quot;&gt;系统开机所需要最基本的动态连接共享库&lt;/span&gt;" style="rounded=0;whiteSpace=wrap;html=1;fontColor=#FF3333;" vertex="1" parent="1">
          <mxGeometry x="-127.5" y="310" width="155" height="90" as="geometry" />
        </mxCell>
        <mxCell id="VVRdmRR-YWMeSzuprIb1-23" value="&lt;span style=&quot;color: rgb(68 , 68 , 68) ; font-family: &amp;#34;helvetica neue&amp;#34; , , &amp;#34;microsoft yahei&amp;#34; , &amp;#34;helvetica&amp;#34; , &amp;#34;arial&amp;#34; , sans-serif ; font-size: 14px ; background-color: rgb(255 , 255 , 255)&quot;&gt;当系统意外崩溃或意外关机时，产生的一些文件碎片会存放在这里。在系统启动的过程中，fsck 工具会检查这里，并修复已经损坏的文件系统。这个目录只在每个分区中出现，例如，/lost+found 就是根分区的备份恢复目录，/boot/lost+found 就是 /boot 分区的备份恢复目录&lt;/span&gt;" style="rounded=0;whiteSpace=wrap;html=1;fontColor=#FF3333;" vertex="1" parent="1">
          <mxGeometry x="40" y="310" width="160" height="225" as="geometry" />
        </mxCell>
        <mxCell id="VVRdmRR-YWMeSzuprIb1-25" value="&lt;span style=&quot;color: rgb(68 , 68 , 68) ; font-family: &amp;#34;helvetica neue&amp;#34; , , &amp;#34;microsoft yahei&amp;#34; , &amp;#34;helvetica&amp;#34; , &amp;#34;arial&amp;#34; , sans-serif ; font-size: 14px ; background-color: rgb(255 , 255 , 255)&quot;&gt;配置文件保存位置。系统内所有采用默认安装方式（rpm 安装）的服务配置文件全部保存在此目录中，如用户信息、服务的启动脚本、常用服务的配置文件等&lt;/span&gt;" style="rounded=0;whiteSpace=wrap;html=1;fontColor=#FF3333;" vertex="1" parent="1">
          <mxGeometry x="210" y="310" width="160" height="140" as="geometry" />
        </mxCell>
        <mxCell id="VVRdmRR-YWMeSzuprIb1-29" value="&lt;span style=&quot;color: rgb(68 , 68 , 68) ; font-family: &amp;#34;helvetica neue&amp;#34; , , &amp;#34;microsoft yahei&amp;#34; , &amp;#34;helvetica&amp;#34; , &amp;#34;arial&amp;#34; , sans-serif ; font-size: 14px ; background-color: rgb(255 , 255 , 255)&quot;&gt;Linux 系统中，所有系统默认的软件都存储在 /usr 目录下，/usr 目录类似 Windows 系统中 C:\Windows\ + C:\Program files\ 两个目录的综合体。&lt;/span&gt;" style="rounded=0;whiteSpace=wrap;html=1;fontColor=#FF3333;" vertex="1" parent="1">
          <mxGeometry x="395" y="310" width="180" height="140" as="geometry" />
        </mxCell>
        <mxCell id="VVRdmRR-YWMeSzuprIb1-31" value="&lt;span style=&quot;color: rgb(68 , 68 , 68) ; font-family: &amp;#34;helvetica neue&amp;#34; , , &amp;#34;microsoft yahei&amp;#34; , &amp;#34;helvetica&amp;#34; , &amp;#34;arial&amp;#34; , sans-serif ; font-size: 14px ; background-color: rgb(255 , 255 , 255)&quot;&gt;系统启动目录，保存与系统启动相关的文件，如内核文件和启动引导程序（grub）文件等&lt;/span&gt;" style="rounded=0;whiteSpace=wrap;html=1;fontColor=#FF3333;" vertex="1" parent="1">
          <mxGeometry x="600" y="310" width="170" height="140" as="geometry" />
        </mxCell>
        <mxCell id="VVRdmRR-YWMeSzuprIb1-35" value="" style="edgeStyle=orthogonalEdgeStyle;rounded=0;orthogonalLoop=1;jettySize=auto;html=1;fontColor=#FF3333;" edge="1" parent="1" source="VVRdmRR-YWMeSzuprIb1-33" target="VVRdmRR-YWMeSzuprIb1-34">
          <mxGeometry relative="1" as="geometry" />
        </mxCell>
        <mxCell id="VVRdmRR-YWMeSzuprIb1-33" value="&lt;font color=&quot;#000000&quot;&gt;/proc&lt;br&gt;(虚拟目录，系统内存的映射)&lt;/font&gt;" style="rounded=0;whiteSpace=wrap;html=1;fontColor=#FF3333;" vertex="1" parent="1">
          <mxGeometry x="790" y="225" width="160" height="55" as="geometry" />
        </mxCell>
        <mxCell id="VVRdmRR-YWMeSzuprIb1-34" value="&lt;span style=&quot;color: rgb(68 , 68 , 68) ; font-family: &amp;#34;helvetica neue&amp;#34; , , &amp;#34;microsoft yahei&amp;#34; , &amp;#34;helvetica&amp;#34; , &amp;#34;arial&amp;#34; , sans-serif ; font-size: 14px ; background-color: rgb(255 , 255 , 255)&quot;&gt;虚拟文件系统。该目录中的数据并不保存在硬盘上，而是保存到内存中。主要保存系统的内核、进程、外部设备状态和网络状态等。如 /proc/cpuinfo 是保存 CPU 信息的，/proc/devices 是保存设备驱动的列表的，/proc/filesystems 是保存文件系统列表的，/proc/net 是保存网络协议信息的......&lt;/span&gt;" style="rounded=0;whiteSpace=wrap;html=1;fontColor=#FF3333;" vertex="1" parent="1">
          <mxGeometry x="780" y="310" width="180" height="240" as="geometry" />
        </mxCell>
        <mxCell id="VVRdmRR-YWMeSzuprIb1-38" value="" style="edgeStyle=orthogonalEdgeStyle;rounded=0;orthogonalLoop=1;jettySize=auto;html=1;fontColor=#000000;" edge="1" parent="1" source="VVRdmRR-YWMeSzuprIb1-36" target="VVRdmRR-YWMeSzuprIb1-37">
          <mxGeometry relative="1" as="geometry" />
        </mxCell>
        <mxCell id="VVRdmRR-YWMeSzuprIb1-36" value="&lt;font color=&quot;#000000&quot;&gt;/srv&lt;br&gt;(存放一些服务启动之后需要提取的数据)&lt;/font&gt;" style="rounded=0;whiteSpace=wrap;html=1;fontColor=#FF3333;" vertex="1" parent="1">
          <mxGeometry x="970" y="227.5" width="140" height="55" as="geometry" />
        </mxCell>
        <mxCell id="VVRdmRR-YWMeSzuprIb1-37" value="&lt;span style=&quot;color: rgb(68 , 68 , 68) ; font-family: &amp;#34;helvetica neue&amp;#34; , , &amp;#34;microsoft yahei&amp;#34; , &amp;#34;helvetica&amp;#34; , &amp;#34;arial&amp;#34; , sans-serif ; font-size: 14px ; background-color: rgb(255 , 255 , 255)&quot;&gt;服务数据目录。一些系统服务启动之后，可以在这个目录中保存所需要的数据&lt;/span&gt;" style="rounded=0;whiteSpace=wrap;html=1;fontColor=#000000;" vertex="1" parent="1">
          <mxGeometry x="970" y="310" width="140" height="95" as="geometry" />
        </mxCell>
        <mxCell id="VVRdmRR-YWMeSzuprIb1-41" value="" style="edgeStyle=orthogonalEdgeStyle;rounded=0;orthogonalLoop=1;jettySize=auto;html=1;fontColor=#000000;" edge="1" parent="1" source="VVRdmRR-YWMeSzuprIb1-39" target="VVRdmRR-YWMeSzuprIb1-40">
          <mxGeometry relative="1" as="geometry" />
        </mxCell>
        <mxCell id="VVRdmRR-YWMeSzuprIb1-39" value="&lt;br&gt;/sys&lt;br&gt;" style="rounded=0;whiteSpace=wrap;html=1;fontColor=#000000;" vertex="1" parent="1">
          <mxGeometry x="1120" y="225" width="130" height="50" as="geometry" />
        </mxCell>
        <mxCell id="VVRdmRR-YWMeSzuprIb1-40" value="&lt;span style=&quot;color: rgb(68 , 68 , 68) ; font-family: &amp;#34;helvetica neue&amp;#34; , , &amp;#34;microsoft yahei&amp;#34; , &amp;#34;helvetica&amp;#34; , &amp;#34;arial&amp;#34; , sans-serif ; font-size: 14px ; background-color: rgb(255 , 255 , 255)&quot;&gt;虚拟文件系统。和 /proc/ 目录相似，该目录中的数据都保存在内存中，主要保存与内核相关的信息&lt;/span&gt;" style="rounded=0;whiteSpace=wrap;html=1;fontColor=#000000;" vertex="1" parent="1">
          <mxGeometry x="1120" y="310" width="130" height="100" as="geometry" />
        </mxCell>
        <mxCell id="VVRdmRR-YWMeSzuprIb1-43" style="edgeStyle=orthogonalEdgeStyle;rounded=0;orthogonalLoop=1;jettySize=auto;html=1;entryX=0.554;entryY=0.997;entryDx=0;entryDy=0;entryPerimeter=0;fontColor=#000000;exitX=0.5;exitY=0;exitDx=0;exitDy=0;" edge="1" parent="1" source="VVRdmRR-YWMeSzuprIb1-42" target="VVRdmRR-YWMeSzuprIb1-34">
          <mxGeometry relative="1" as="geometry">
            <Array as="points">
              <mxPoint x="1050" y="590" />
              <mxPoint x="880" y="590" />
            </Array>
          </mxGeometry>
        </mxCell>
        <mxCell id="VVRdmRR-YWMeSzuprIb1-46" value="" style="edgeStyle=orthogonalEdgeStyle;rounded=0;orthogonalLoop=1;jettySize=auto;html=1;fontColor=#000000;" edge="1" parent="1" source="VVRdmRR-YWMeSzuprIb1-42" target="VVRdmRR-YWMeSzuprIb1-40">
          <mxGeometry relative="1" as="geometry">
            <Array as="points">
              <mxPoint x="1050" y="590" />
              <mxPoint x="1215" y="590" />
            </Array>
          </mxGeometry>
        </mxCell>
        <mxCell id="VVRdmRR-YWMeSzuprIb1-47" value="" style="edgeStyle=orthogonalEdgeStyle;rounded=0;orthogonalLoop=1;jettySize=auto;html=1;fontColor=#000000;entryX=0.5;entryY=1;entryDx=0;entryDy=0;" edge="1" parent="1" source="VVRdmRR-YWMeSzuprIb1-42" target="VVRdmRR-YWMeSzuprIb1-37">
          <mxGeometry relative="1" as="geometry">
            <mxPoint x="1050" y="540" as="targetPoint" />
            <Array as="points">
              <mxPoint x="1050" y="620" />
              <mxPoint x="1050" y="620" />
            </Array>
          </mxGeometry>
        </mxCell>
        <mxCell id="VVRdmRR-YWMeSzuprIb1-42" value="和内核相关，不要动" style="rounded=0;whiteSpace=wrap;html=1;fontColor=#000000;" vertex="1" parent="1">
          <mxGeometry x="990" y="650" width="120" height="60" as="geometry" />
        </mxCell>
        <mxCell id="VVRdmRR-YWMeSzuprIb1-50" value="" style="edgeStyle=orthogonalEdgeStyle;rounded=0;orthogonalLoop=1;jettySize=auto;html=1;fontColor=#000000;" edge="1" parent="1" source="VVRdmRR-YWMeSzuprIb1-48" target="VVRdmRR-YWMeSzuprIb1-49">
          <mxGeometry relative="1" as="geometry" />
        </mxCell>
        <mxCell id="VVRdmRR-YWMeSzuprIb1-48" value="/tmp&lt;br&gt;(用来存放临时文件)" style="rounded=0;whiteSpace=wrap;html=1;fontColor=#000000;" vertex="1" parent="1">
          <mxGeometry x="1265" y="225" width="120" height="60" as="geometry" />
        </mxCell>
        <mxCell id="VVRdmRR-YWMeSzuprIb1-49" value="&lt;span style=&quot;color: rgb(68 , 68 , 68) ; font-family: &amp;#34;helvetica neue&amp;#34; , , &amp;#34;microsoft yahei&amp;#34; , &amp;#34;helvetica&amp;#34; , &amp;#34;arial&amp;#34; , sans-serif ; font-size: 14px ; background-color: rgb(255 , 255 , 255)&quot;&gt;临时目录。系统存放临时文件的目录，在该目录下，所有用户都可以访问和写入。建议此目录中不能保存重要数据，最好每次开机都把该目录清空&lt;/span&gt;" style="rounded=0;whiteSpace=wrap;html=1;fontColor=#000000;" vertex="1" parent="1">
          <mxGeometry x="1260" y="310" width="130" height="150" as="geometry" />
        </mxCell>
        <mxCell id="VVRdmRR-YWMeSzuprIb1-51" value="/dev&lt;br&gt;(类似于windows的设备管理器，把所有的硬件用文件的形式存储)" style="rounded=0;whiteSpace=wrap;html=1;fontColor=#000000;" vertex="1" parent="1">
          <mxGeometry x="1400" y="226.25" width="140" height="62.5" as="geometry" />
        </mxCell>
        <mxCell id="VVRdmRR-YWMeSzuprIb1-54" value="" style="edgeStyle=orthogonalEdgeStyle;rounded=0;orthogonalLoop=1;jettySize=auto;html=1;fontColor=#FF3333;" edge="1" parent="1" source="VVRdmRR-YWMeSzuprIb1-52" target="VVRdmRR-YWMeSzuprIb1-53">
          <mxGeometry relative="1" as="geometry" />
        </mxCell>
        <mxCell id="VVRdmRR-YWMeSzuprIb1-52" value="&lt;font color=&quot;#ff3333&quot;&gt;/media&lt;/font&gt;&lt;br&gt;(linux会自动识别一些设备，例如U盘、光驱等，识别后，linux会把识别的设备挂载到这个目录下)" style="rounded=0;whiteSpace=wrap;html=1;fontColor=#000000;" vertex="1" parent="1">
          <mxGeometry x="1560" y="227.5" width="180" height="62.5" as="geometry" />
        </mxCell>
        <mxCell id="VVRdmRR-YWMeSzuprIb1-53" value="&lt;span style=&quot;color: rgb(68 , 68 , 68) ; font-family: &amp;#34;helvetica neue&amp;#34; , , &amp;#34;microsoft yahei&amp;#34; , &amp;#34;helvetica&amp;#34; , &amp;#34;arial&amp;#34; , sans-serif ; font-size: 14px ; background-color: rgb(255 , 255 , 255)&quot;&gt;挂载目录。系统建议用来挂载媒体设备，如软盘和光盘&lt;/span&gt;" style="rounded=0;whiteSpace=wrap;html=1;fontColor=#FF3333;" vertex="1" parent="1">
          <mxGeometry x="1575" y="320" width="150" height="110" as="geometry" />
        </mxCell>
        <mxCell id="VVRdmRR-YWMeSzuprIb1-58" value="" style="edgeStyle=orthogonalEdgeStyle;rounded=0;orthogonalLoop=1;jettySize=auto;html=1;fontColor=#000000;" edge="1" parent="1" source="VVRdmRR-YWMeSzuprIb1-56" target="VVRdmRR-YWMeSzuprIb1-57">
          <mxGeometry relative="1" as="geometry" />
        </mxCell>
        <mxCell id="VVRdmRR-YWMeSzuprIb1-56" value="/mnt&lt;br&gt;&lt;font color=&quot;#000000&quot;&gt;(为了让用户临时挂载别的文件系统的，可以将外部的存储挂载在/mnt上)&lt;/font&gt;" style="rounded=0;whiteSpace=wrap;html=1;fontColor=#FF3333;" vertex="1" parent="1">
          <mxGeometry x="1755" y="229.38" width="150" height="61.25" as="geometry" />
        </mxCell>
        <mxCell id="VVRdmRR-YWMeSzuprIb1-57" value="&lt;span style=&quot;color: rgb(68 , 68 , 68) ; font-family: &amp;#34;helvetica neue&amp;#34; , , &amp;#34;microsoft yahei&amp;#34; , &amp;#34;helvetica&amp;#34; , &amp;#34;arial&amp;#34; , sans-serif ; font-size: 14px ; background-color: rgb(255 , 255 , 255)&quot;&gt;挂载目录。早期 Linux 中只有这一个挂载目录，并没有细分。系统建议这个目录用来挂载额外的设备，如 U 盘、移动硬盘和其他操作系统的分区&lt;/span&gt;" style="rounded=0;whiteSpace=wrap;html=1;fontColor=#000000;" vertex="1" parent="1">
          <mxGeometry x="1750" y="320" width="160" height="140" as="geometry" />
        </mxCell>
        <mxCell id="VVRdmRR-YWMeSzuprIb1-61" value="" style="edgeStyle=orthogonalEdgeStyle;rounded=0;orthogonalLoop=1;jettySize=auto;html=1;fontColor=#000000;" edge="1" parent="1" source="VVRdmRR-YWMeSzuprIb1-59" target="VVRdmRR-YWMeSzuprIb1-60">
          <mxGeometry relative="1" as="geometry" />
        </mxCell>
        <mxCell id="VVRdmRR-YWMeSzuprIb1-59" value="/opt&lt;br&gt;(给主机额外安装软件所摆放的目录)" style="rounded=0;whiteSpace=wrap;html=1;fontColor=#000000;" vertex="1" parent="1">
          <mxGeometry x="1945" y="228.75" width="120" height="60" as="geometry" />
        </mxCell>
        <mxCell id="VVRdmRR-YWMeSzuprIb1-60" value="&lt;span style=&quot;color: rgb(68 , 68 , 68) ; font-family: &amp;#34;helvetica neue&amp;#34; , , &amp;#34;microsoft yahei&amp;#34; , &amp;#34;helvetica&amp;#34; , &amp;#34;arial&amp;#34; , sans-serif ; font-size: 14px ; background-color: rgb(255 , 255 , 255)&quot;&gt;第三方安装的软件保存位置。这个目录是放置和安装其他软件的位置，手工安装的源码包软件都可以安装到这个目录中。/usr/local/ 目录也可以用来安装软件&lt;/span&gt;" style="rounded=0;whiteSpace=wrap;html=1;fontColor=#000000;" vertex="1" parent="1">
          <mxGeometry x="1920" y="320" width="170" height="170" as="geometry" />
        </mxCell>
        <mxCell id="VVRdmRR-YWMeSzuprIb1-64" value="" style="edgeStyle=orthogonalEdgeStyle;rounded=0;orthogonalLoop=1;jettySize=auto;html=1;fontColor=#000000;" edge="1" parent="1" source="VVRdmRR-YWMeSzuprIb1-62" target="VVRdmRR-YWMeSzuprIb1-63">
          <mxGeometry relative="1" as="geometry" />
        </mxCell>
        <mxCell id="VVRdmRR-YWMeSzuprIb1-62" value="&lt;font color=&quot;#ff3333&quot;&gt;/usr/local&lt;/font&gt;&lt;br&gt;（另一个给主机额外安装软件所安装的目录。一般是通过编译源码方式安装的程序）" style="rounded=0;whiteSpace=wrap;html=1;fontColor=#000000;" vertex="1" parent="1">
          <mxGeometry x="2110" y="228.12" width="160" height="60.63" as="geometry" />
        </mxCell>
        <mxCell id="VVRdmRR-YWMeSzuprIb1-63" value="&lt;span style=&quot;color: rgb(68 , 68 , 68) ; font-family: &amp;#34;helvetica neue&amp;#34; , , &amp;#34;microsoft yahei&amp;#34; , &amp;#34;helvetica&amp;#34; , &amp;#34;arial&amp;#34; , sans-serif ; font-size: 14px ; background-color: rgb(255 , 255 , 255)&quot;&gt;手工安装的软件保存位置。我们一般建议源码包软件安装在这个位置&lt;/span&gt;" style="rounded=0;whiteSpace=wrap;html=1;fontColor=#000000;" vertex="1" parent="1">
          <mxGeometry x="2120" y="320" width="140" height="75" as="geometry" />
        </mxCell>
        <mxCell id="VVRdmRR-YWMeSzuprIb1-67" value="" style="edgeStyle=orthogonalEdgeStyle;rounded=0;orthogonalLoop=1;jettySize=auto;html=1;fontColor=#FF3333;" edge="1" parent="1" source="VVRdmRR-YWMeSzuprIb1-65" target="VVRdmRR-YWMeSzuprIb1-66">
          <mxGeometry relative="1" as="geometry" />
        </mxCell>
        <mxCell id="VVRdmRR-YWMeSzuprIb1-65" value="&lt;font color=&quot;#ff3333&quot;&gt;/var&lt;/font&gt;&lt;br&gt;(存放不断扩充着的东西，习惯将经常被修改的目录放在这个目录下。包括各种日志文件)" style="rounded=0;whiteSpace=wrap;html=1;fontColor=#000000;" vertex="1" parent="1">
          <mxGeometry x="2280" y="226.25" width="170" height="69.37" as="geometry" />
        </mxCell>
        <mxCell id="VVRdmRR-YWMeSzuprIb1-66" value="&lt;span style=&quot;color: rgb(68 , 68 , 68) ; font-family: &amp;#34;helvetica neue&amp;#34; , , &amp;#34;microsoft yahei&amp;#34; , &amp;#34;helvetica&amp;#34; , &amp;#34;arial&amp;#34; , sans-serif ; font-size: 14px ; background-color: rgb(255 , 255 , 255)&quot;&gt;/var 目录用于存储动态数据，例如缓存、日志文件、软件运行过程中产生的文件等&lt;/span&gt;" style="rounded=0;whiteSpace=wrap;html=1;fontColor=#FF3333;" vertex="1" parent="1">
          <mxGeometry x="2280" y="320" width="170" height="80" as="geometry" />
        </mxCell>
        <mxCell id="VVRdmRR-YWMeSzuprIb1-68" value="/selinux&lt;br&gt;&lt;font color=&quot;#000000&quot;&gt;(是一种安全子系统，能控制程序只能访问特定文件)&lt;/font&gt;" style="rounded=0;whiteSpace=wrap;html=1;fontColor=#FF3333;" vertex="1" parent="1">
          <mxGeometry x="2480" y="230" width="120" height="60" as="geometry" />
        </mxCell>
      </root>
    </mxGraphModel>
  </diagram>
</mxfile>
